<svg xmlns="http://www.w3.org/2000/svg" width="1120" height="658" viewBox="0 0 1120 658" role="img" aria-labelledby="title desc">
<title id="title">同一个功能需要经过四种连接</title><desc id="desc">“勾了插件”只完成第一层。以 CommonUI 为例，还需要正确视口类、LocalPlayer/Policy、根布局、可激活控件、焦点和输入配置。</desc>
<defs><marker id="a" markerWidth="9" markerHeight="9" refX="5" refY="4" orient="auto"><path d="M0,0 L0,8 L7,4 z" fill="#7aa6b2"/></marker></defs>
<rect width="1120" height="658" rx="18" fill="#112027"/>
<g font-family="Noto Sans SC,Microsoft YaHei,sans-serif">
<text x="42" y="48" fill="#f1f5f6" font-size="27" font-weight="700">同一个功能需要经过四种连接</text>
<text x="42" y="80" fill="#9db4bd" font-size="17">关系示意图 · 按序号阅读 · 不是编辑器截图</text>
<rect x="42" y="110" width="1036" height="100" rx="10" fill="#1d343e" stroke="#486571"/>
<circle cx="78" cy="142" r="18" fill="#b6d588"/>
<text x="78" y="149" text-anchor="middle" font-size="20" font-weight="700" fill="#142123">1</text>
<text x="112" y="148" fill="#f1f5f6" font-size="23" font-weight="700">插件选择：.uproject / .uplugin</text>
<text x="112" y="178" fill="#d3e1e6" font-size="18">项目选哪些插件；描述符声明模块、内容、依赖与平台条件。</text>
<path d="M560,211 V230" stroke="#7aa6b2" stroke-width="2" marker-end="url(#a)"/>
<rect x="42" y="238" width="1036" height="100" rx="10" fill="#1d343e" stroke="#486571"/>
<circle cx="78" cy="270" r="18" fill="#b6d588"/>
<text x="78" y="277" text-anchor="middle" font-size="20" font-weight="700" fill="#142123">2</text>
<text x="112" y="276" fill="#f1f5f6" font-size="23" font-weight="700">编译连接：.Build.cs</text>
<text x="112" y="306" fill="#d3e1e6" font-size="18">当前 C++ 模块依赖谁，决定能否使用对应头文件与符号。</text>
<path d="M560,339 V358" stroke="#7aa6b2" stroke-width="2" marker-end="url(#a)"/>
<rect x="42" y="366" width="1036" height="100" rx="10" fill="#1d343e" stroke="#486571"/>
<circle cx="78" cy="398" r="18" fill="#b6d588"/>
<text x="78" y="405" text-anchor="middle" font-size="20" font-weight="700" fill="#142123">3</text>
<text x="112" y="404" fill="#f1f5f6" font-size="23" font-weight="700">资产配置：Experience / ActionSet</text>
<text x="112" y="434" fill="#d3e1e6" font-size="18">选择角色、技能、输入、HUD，以及本局需要激活的 Feature。</text>
<path d="M560,467 V486" stroke="#7aa6b2" stroke-width="2" marker-end="url(#a)"/>
<rect x="42" y="494" width="1036" height="100" rx="10" fill="#1d343e" stroke="#486571"/>
<circle cx="78" cy="526" r="18" fill="#b6d588"/>
<text x="78" y="533" text-anchor="middle" font-size="20" font-weight="700" fill="#142123">4</text>
<text x="112" y="532" fill="#f1f5f6" font-size="23" font-weight="700">运行连接：Subsystem / Component / Action</text>
<text x="112" y="562" fill="#d3e1e6" font-size="18">在对应 World 和玩家上下文创建、登记、调用，再在退出时清理。</text>
</g></svg>